<svg width="30" height="30" viewBox="0 0 1000 1000" fill="none" xmlns="http://www.w3.org/2000/svg">
<path fill-rule="evenodd" clip-rule="evenodd" d="M500 0C223.858 0 0 223.858 0 500C0 571.892 15.1726 640.239 42.4904 702.016L302.221 201.976L538.272 656.423V201.976H797.531L797.531 201.976C797.696 201.976 797.86 201.976 798.025 201.976C861.406 201.976 917.31 233.987 950.451 282.724C869.6 115.413 698.278 0 500 0ZM980.597 361.594C981.669 369.635 982.222 377.839 982.222 386.173C982.222 474.148 920.547 547.718 838.075 566.004L953.162 711.573C983.213 647.318 1000 575.62 1000 500C1000 451.983 993.232 405.547 980.597 361.594ZM66.1085 748.642H538.272H586.173H933.891C847.634 898.841 685.63 1000 500 1000C314.37 1000 152.366 898.841 66.1085 748.642Z" fill="#ffffff"/>
</svg>
